<?xml version="1.0" encoding="UTF-8" standalone="no"?>
<!DOCTYPE svg PUBLIC "-//W3C//DTD SVG 1.1//EN"
 "http://www.w3.org/Graphics/SVG/1.1/DTD/svg11.dtd">
<!-- Generated by graphviz version 12.1.2 (0)
 -->
<!-- Title: yq::contains_stream_output_handler&lt; Os &gt; Pages: 1 -->
<svg width="137pt" height="160pt"
 viewBox="0.00 0.00 137.25 160.25" xmlns="http://www.w3.org/2000/svg" xmlns:xlink="http://www.w3.org/1999/xlink">
<g id="graph0" class="graph" transform="scale(1 1) rotate(0) translate(4 156.25)">
<title>yq::contains_stream_output_handler&lt; Os &gt;</title>
<!-- Node1 -->
<g id="Node000001" class="node">
<title>Node1</title>
<g id="a_Node000001"><a xlink:title=" ">
<polygon fill="#999999" stroke="#666666" points="121.75,-30.5 7.5,-30.5 7.5,0 121.75,0 121.75,-30.5"/>
<text text-anchor="start" x="15.5" y="-17" font-family="Helvetica,sans-Serif" font-size="10.00">yq::contains_stream</text>
<text text-anchor="middle" x="64.62" y="-5.75" font-family="Helvetica,sans-Serif" font-size="10.00">_output_handler&lt; Os &gt;</text>
</a>
</g>
</g>
<!-- Node2 -->
<g id="Node000002" class="node">
<title>Node2</title>
<g id="a_Node000002"><a xlink:href="classyq_1_1stream__output__handler.html" target="_top" xlink:title=" ">
<polygon fill="white" stroke="#bfbfbf" points="129.25,-97 0,-97 0,-66.5 129.25,-66.5 129.25,-97"/>
<text text-anchor="start" x="8" y="-83.5" font-family="Helvetica,sans-Serif" font-size="10.00">yq::stream_output_handler</text>
<text text-anchor="middle" x="64.62" y="-72.25" font-family="Helvetica,sans-Serif" font-size="10.00">&lt; Os &gt;</text>
</a>
</g>
</g>
<!-- Node2&#45;&gt;Node1 -->
<g id="edge1_Node000001_Node000002" class="edge">
<title>Node2&#45;&gt;Node1</title>
<g id="a_edge1_Node000001_Node000002"><a xlink:title=" ">
<path fill="none" stroke="#63b8ff" d="M64.62,-54.81C64.62,-46.64 64.62,-37.91 64.62,-30.83"/>
<polygon fill="#63b8ff" stroke="#63b8ff" points="61.13,-54.6 64.63,-64.6 68.13,-54.6 61.13,-54.6"/>
</a>
</g>
</g>
<!-- Node3 -->
<g id="Node000003" class="node">
<title>Node3</title>
<g id="a_Node000003"><a xlink:href="classyq_1_1base__output__handler.html" target="_top" xlink:title="Contains an object(reference) for output, managed and synchronized by yq::logger_core.">
<polygon fill="white" stroke="#666666" points="124.75,-152.25 4.5,-152.25 4.5,-133 124.75,-133 124.75,-152.25"/>
<text text-anchor="middle" x="64.62" y="-138.75" font-family="Helvetica,sans-Serif" font-size="10.00">yq::base_output_handler</text>
</a>
</g>
</g>
<!-- Node3&#45;&gt;Node2 -->
<g id="edge2_Node000002_Node000003" class="edge">
<title>Node3&#45;&gt;Node2</title>
<g id="a_edge2_Node000002_Node000003"><a xlink:title=" ">
<path fill="none" stroke="#63b8ff" d="M64.62,-121.42C64.62,-113.49 64.62,-104.56 64.62,-97.28"/>
<polygon fill="#63b8ff" stroke="#63b8ff" points="61.13,-121.17 64.63,-131.17 68.13,-121.17 61.13,-121.17"/>
</a>
</g>
</g>
</g>
</svg>
