<?xml version="1.0" encoding="UTF-8" standalone="no"?>
<!DOCTYPE svg PUBLIC "-//W3C//DTD SVG 1.1//EN"
 "http://www.w3.org/Graphics/SVG/1.1/DTD/svg11.dtd">
<!-- Generated by graphviz version 12.1.2 (0)
 -->
<!-- Title: yq::fstream_output_handler Pages: 1 -->
<svg width="137pt" height="238pt"
 viewBox="0.00 0.00 137.25 238.00" xmlns="http://www.w3.org/2000/svg" xmlns:xlink="http://www.w3.org/1999/xlink">
<g id="graph0" class="graph" transform="scale(1 1) rotate(0) translate(4 234)">
<title>yq::fstream_output_handler</title>
<!-- Node1 -->
<g id="Node000001" class="node">
<title>Node1</title>
<g id="a_Node000001"><a xlink:title=" ">
<polygon fill="#999999" stroke="#666666" points="112.38,-30.5 16.88,-30.5 16.88,0 112.38,0 112.38,-30.5"/>
<text text-anchor="start" x="24.88" y="-17" font-family="Helvetica,sans-Serif" font-size="10.00">yq::fstream_output</text>
<text text-anchor="middle" x="64.62" y="-5.75" font-family="Helvetica,sans-Serif" font-size="10.00">_handler</text>
</a>
</g>
</g>
<!-- Node2 -->
<g id="Node000002" class="node">
<title>Node2</title>
<g id="a_Node000002"><a xlink:href="classyq_1_1contains__stream__output__handler.html" target="_top" xlink:title=" ">
<polygon fill="white" stroke="#bfbfbf" points="118,-108.25 11.25,-108.25 11.25,-66.5 118,-66.5 118,-108.25"/>
<text text-anchor="start" x="19.25" y="-94.75" font-family="Helvetica,sans-Serif" font-size="10.00">yq::contains_stream</text>
<text text-anchor="start" x="19.25" y="-83.5" font-family="Helvetica,sans-Serif" font-size="10.00">_output_handler&lt; std</text>
<text text-anchor="middle" x="64.62" y="-72.25" font-family="Helvetica,sans-Serif" font-size="10.00">::ofstream &gt;</text>
</a>
</g>
</g>
<!-- Node2&#45;&gt;Node1 -->
<g id="edge1_Node000001_Node000002" class="edge">
<title>Node2&#45;&gt;Node1</title>
<g id="a_edge1_Node000001_Node000002"><a xlink:title=" ">
<path fill="none" stroke="#63b8ff" d="M64.62,-54.63C64.62,-46.27 64.62,-37.65 64.62,-30.7"/>
<polygon fill="#63b8ff" stroke="#63b8ff" points="61.13,-54.58 64.63,-64.58 68.13,-54.58 61.13,-54.58"/>
</a>
</g>
</g>
<!-- Node3 -->
<g id="Node000003" class="node">
<title>Node3</title>
<g id="a_Node000003"><a xlink:href="classyq_1_1stream__output__handler.html" target="_top" xlink:title=" ">
<polygon fill="white" stroke="#bfbfbf" points="129.25,-174.75 0,-174.75 0,-144.25 129.25,-144.25 129.25,-174.75"/>
<text text-anchor="start" x="8" y="-161.25" font-family="Helvetica,sans-Serif" font-size="10.00">yq::stream_output_handler</text>
<text text-anchor="middle" x="64.62" y="-150" font-family="Helvetica,sans-Serif" font-size="10.00">&lt; Os &gt;</text>
</a>
</g>
</g>
<!-- Node3&#45;&gt;Node2 -->
<g id="edge2_Node000002_Node000003" class="edge">
<title>Node3&#45;&gt;Node2</title>
<g id="a_edge2_Node000002_Node000003"><a xlink:title=" ">
<path fill="none" stroke="#63b8ff" d="M64.62,-132.72C64.62,-124.81 64.62,-116.23 64.62,-108.74"/>
<polygon fill="#63b8ff" stroke="#63b8ff" points="61.13,-132.46 64.63,-142.46 68.13,-132.46 61.13,-132.46"/>
</a>
</g>
</g>
<!-- Node4 -->
<g id="Node000004" class="node">
<title>Node4</title>
<g id="a_Node000004"><a xlink:href="classyq_1_1base__output__handler.html" target="_top" xlink:title=" ">
<polygon fill="white" stroke="#bfbfbf" points="124.75,-230 4.5,-230 4.5,-210.75 124.75,-210.75 124.75,-230"/>
<text text-anchor="middle" x="64.62" y="-216.5" font-family="Helvetica,sans-Serif" font-size="10.00">yq::base_output_handler</text>
</a>
</g>
</g>
<!-- Node4&#45;&gt;Node3 -->
<g id="edge3_Node000003_Node000004" class="edge">
<title>Node4&#45;&gt;Node3</title>
<g id="a_edge3_Node000003_Node000004"><a xlink:title=" ">
<path fill="none" stroke="#63b8ff" d="M64.62,-199.17C64.62,-191.24 64.62,-182.31 64.62,-175.03"/>
<polygon fill="#63b8ff" stroke="#63b8ff" points="61.13,-198.92 64.63,-208.92 68.13,-198.92 61.13,-198.92"/>
</a>
</g>
</g>
</g>
</svg>
