<?xml version="1.0" encoding="UTF-8" standalone="no"?>
<!DOCTYPE svg PUBLIC "-//W3C//DTD SVG 1.1//EN"
 "http://www.w3.org/Graphics/SVG/1.1/DTD/svg11.dtd">
<!-- Generated by graphviz version 12.1.2 (0)
 -->
<!-- Title: yq::stringstream_output_handler Pages: 1 -->
<svg width="203pt" height="251pt"
 viewBox="0.00 0.00 202.88 251.25" xmlns="http://www.w3.org/2000/svg" xmlns:xlink="http://www.w3.org/1999/xlink">
<g id="graph0" class="graph" transform="scale(1 1) rotate(0) translate(4 247.25)">
<title>yq::stringstream_output_handler</title>
<!-- Node1 -->
<g id="Node000001" class="node">
<title>Node1</title>
<g id="a_Node000001"><a xlink:title=" ">
<polygon fill="#999999" stroke="#666666" points="194.88,-30.5 78.38,-30.5 78.38,0 194.88,0 194.88,-30.5"/>
<text text-anchor="start" x="86.38" y="-17" font-family="Helvetica,sans-Serif" font-size="10.00">yq::stringstream_output</text>
<text text-anchor="middle" x="136.62" y="-5.75" font-family="Helvetica,sans-Serif" font-size="10.00">_handler</text>
</a>
</g>
</g>
<!-- Node2 -->
<g id="Node000002" class="node">
<title>Node2</title>
<g id="a_Node000002"><a xlink:href="classyq_1_1contains__stream__output__handler.html" target="_top" xlink:title=" ">
<polygon fill="white" stroke="#bfbfbf" points="190,-109.25 83.25,-109.25 83.25,-67.5 190,-67.5 190,-109.25"/>
<text text-anchor="start" x="91.25" y="-95.75" font-family="Helvetica,sans-Serif" font-size="10.00">yq::contains_stream</text>
<text text-anchor="start" x="91.25" y="-84.5" font-family="Helvetica,sans-Serif" font-size="10.00">_output_handler&lt; std</text>
<text text-anchor="middle" x="136.62" y="-73.25" font-family="Helvetica,sans-Serif" font-size="10.00">::ostringstream &gt;</text>
</a>
</g>
</g>
<!-- Node2&#45;&gt;Node1 -->
<g id="edge1_Node000001_Node000002" class="edge">
<title>Node2&#45;&gt;Node1</title>
<g id="a_edge1_Node000001_Node000002"><a xlink:title=" ">
<path fill="none" stroke="#63b8ff" d="M136.62,-55.95C136.62,-47.11 136.62,-37.92 136.62,-30.62"/>
<polygon fill="#63b8ff" stroke="#63b8ff" points="133.13,-55.67 136.63,-65.67 140.13,-55.67 133.13,-55.67"/>
</a>
</g>
</g>
<!-- Node3 -->
<g id="Node000003" class="node">
<title>Node3</title>
<g id="a_Node000003"><a xlink:href="classyq_1_1stream__output__handler.html" target="_top" xlink:title=" ">
<polygon fill="white" stroke="#bfbfbf" points="129.25,-187 0,-187 0,-156.5 129.25,-156.5 129.25,-187"/>
<text text-anchor="start" x="8" y="-173.5" font-family="Helvetica,sans-Serif" font-size="10.00">yq::stream_output_handler</text>
<text text-anchor="middle" x="64.62" y="-162.25" font-family="Helvetica,sans-Serif" font-size="10.00">&lt; Os &gt;</text>
</a>
</g>
</g>
<!-- Node3&#45;&gt;Node2 -->
<g id="edge2_Node000002_Node000003" class="edge">
<title>Node3&#45;&gt;Node2</title>
<g id="a_edge2_Node000002_Node000003"><a xlink:title=" ">
<path fill="none" stroke="#63b8ff" d="M85.09,-147.62C95.69,-135.64 108.52,-121.14 118.73,-109.6"/>
<polygon fill="#63b8ff" stroke="#63b8ff" points="82.51,-145.26 78.5,-155.07 87.75,-149.9 82.51,-145.26"/>
</a>
</g>
</g>
<!-- Node4 -->
<g id="Node000004" class="node">
<title>Node4</title>
<g id="a_Node000004"><a xlink:href="classyq_1_1base__output__handler.html" target="_top" xlink:title="Contains an object(reference) for output, managed and synchronized by yq::logger_core.">
<polygon fill="white" stroke="#666666" points="124.75,-243.25 4.5,-243.25 4.5,-224 124.75,-224 124.75,-243.25"/>
<text text-anchor="middle" x="64.62" y="-229.75" font-family="Helvetica,sans-Serif" font-size="10.00">yq::base_output_handler</text>
</a>
</g>
</g>
<!-- Node4&#45;&gt;Node3 -->
<g id="edge3_Node000003_Node000004" class="edge">
<title>Node4&#45;&gt;Node3</title>
<g id="a_edge3_Node000003_Node000004"><a xlink:title=" ">
<path fill="none" stroke="#63b8ff" d="M64.62,-212.19C64.62,-203.93 64.62,-194.59 64.62,-187.07"/>
<polygon fill="#63b8ff" stroke="#63b8ff" points="61.13,-212.02 64.63,-222.02 68.13,-212.02 61.13,-212.02"/>
</a>
</g>
</g>
<!-- Node5 -->
<g id="Node000005" class="node">
<title>Node5</title>
<g id="a_Node000005"><a xlink:title=" ">
<polygon fill="white" stroke="#bfbfbf" points="176.03,-181.38 147.22,-181.38 147.22,-162.12 176.03,-162.12 176.03,-181.38"/>
<text text-anchor="middle" x="161.62" y="-167.88" font-family="Helvetica,sans-Serif" font-size="10.00">Os</text>
</a>
</g>
</g>
<!-- Node5&#45;&gt;Node2 -->
<g id="edge4_Node000002_Node000005" class="edge">
<title>Node5&#45;&gt;Node2</title>
<g id="a_edge4_Node000002_Node000005"><a xlink:title=" ">
<path fill="none" stroke="#9a32cd" stroke-dasharray="5,2" d="M155.57,-151.05C151.71,-138.49 146.73,-122.26 142.84,-109.6"/>
<polygon fill="#9a32cd" stroke="#9a32cd" points="152.13,-151.75 158.41,-160.28 158.82,-149.7 152.13,-151.75"/>
</a>
</g>
<text text-anchor="middle" x="164.49" y="-129" font-family="Helvetica,sans-Serif" font-size="10.00" fill="grey"> m_os</text>
</g>
</g>
</svg>
