<?xml version="1.0" encoding="UTF-8" standalone="no"?>
<!DOCTYPE svg PUBLIC "-//W3C//DTD SVG 1.1//EN"
 "http://www.w3.org/Graphics/SVG/1.1/DTD/svg11.dtd">
<!-- Generated by graphviz version 12.1.2 (0)
 -->
<!-- Title: yq::contains_stream_output_handler&lt; Os &gt; Pages: 1 -->
<svg width="202pt" height="173pt"
 viewBox="0.00 0.00 201.75 172.50" xmlns="http://www.w3.org/2000/svg" xmlns:xlink="http://www.w3.org/1999/xlink">
<g id="graph0" class="graph" transform="scale(1 1) rotate(0) translate(4 168.5)">
<title>yq::contains_stream_output_handler&lt; Os &gt;</title>
<!-- Node1 -->
<g id="Node000001" class="node">
<title>Node1</title>
<g id="a_Node000001"><a xlink:title=" ">
<polygon fill="#999999" stroke="#666666" points="193.75,-30.5 79.5,-30.5 79.5,0 193.75,0 193.75,-30.5"/>
<text text-anchor="start" x="87.5" y="-17" font-family="Helvetica,sans-Serif" font-size="10.00">yq::contains_stream</text>
<text text-anchor="middle" x="136.62" y="-5.75" font-family="Helvetica,sans-Serif" font-size="10.00">_output_handler&lt; Os &gt;</text>
</a>
</g>
</g>
<!-- Node2 -->
<g id="Node000002" class="node">
<title>Node2</title>
<g id="a_Node000002"><a xlink:href="classyq_1_1stream__output__handler.html" target="_top" xlink:title=" ">
<polygon fill="white" stroke="#bfbfbf" points="129.25,-108.25 0,-108.25 0,-77.75 129.25,-77.75 129.25,-108.25"/>
<text text-anchor="start" x="8" y="-94.75" font-family="Helvetica,sans-Serif" font-size="10.00">yq::stream_output_handler</text>
<text text-anchor="middle" x="64.62" y="-83.5" font-family="Helvetica,sans-Serif" font-size="10.00">&lt; Os &gt;</text>
</a>
</g>
</g>
<!-- Node2&#45;&gt;Node1 -->
<g id="edge1_Node000001_Node000002" class="edge">
<title>Node2&#45;&gt;Node1</title>
<g id="a_edge1_Node000001_Node000002"><a xlink:title=" ">
<path fill="none" stroke="#63b8ff" d="M86.24,-69.26C98.09,-56.79 112.44,-41.7 122.79,-30.81"/>
<polygon fill="#63b8ff" stroke="#63b8ff" points="83.9,-66.64 79.55,-76.3 88.98,-71.46 83.9,-66.64"/>
</a>
</g>
</g>
<!-- Node3 -->
<g id="Node000003" class="node">
<title>Node3</title>
<g id="a_Node000003"><a xlink:href="classyq_1_1base__output__handler.html" target="_top" xlink:title="Contains an object(reference) for output, managed and synchronized by yq::logger_core.">
<polygon fill="white" stroke="#666666" points="124.75,-164.5 4.5,-164.5 4.5,-145.25 124.75,-145.25 124.75,-164.5"/>
<text text-anchor="middle" x="64.62" y="-151" font-family="Helvetica,sans-Serif" font-size="10.00">yq::base_output_handler</text>
</a>
</g>
</g>
<!-- Node3&#45;&gt;Node2 -->
<g id="edge2_Node000002_Node000003" class="edge">
<title>Node3&#45;&gt;Node2</title>
<g id="a_edge2_Node000002_Node000003"><a xlink:title=" ">
<path fill="none" stroke="#63b8ff" d="M64.62,-133.44C64.62,-125.18 64.62,-115.84 64.62,-108.32"/>
<polygon fill="#63b8ff" stroke="#63b8ff" points="61.13,-133.27 64.63,-143.27 68.13,-133.27 61.13,-133.27"/>
</a>
</g>
</g>
<!-- Node4 -->
<g id="Node000004" class="node">
<title>Node4</title>
<g id="a_Node000004"><a xlink:title=" ">
<polygon fill="white" stroke="#bfbfbf" points="176.03,-102.62 147.22,-102.62 147.22,-83.38 176.03,-83.38 176.03,-102.62"/>
<text text-anchor="middle" x="161.62" y="-89.12" font-family="Helvetica,sans-Serif" font-size="10.00">Os</text>
</a>
</g>
</g>
<!-- Node4&#45;&gt;Node1 -->
<g id="edge3_Node000001_Node000004" class="edge">
<title>Node4&#45;&gt;Node1</title>
<g id="a_edge3_Node000001_Node000004"><a xlink:title=" ">
<path fill="none" stroke="#9a32cd" stroke-dasharray="5,2" d="M155.16,-72.42C150.89,-59.47 145.37,-42.76 141.47,-30.94"/>
<polygon fill="#9a32cd" stroke="#9a32cd" points="151.73,-73.18 158.18,-81.58 158.37,-70.98 151.73,-73.18"/>
</a>
</g>
<text text-anchor="middle" x="163.75" y="-50.25" font-family="Helvetica,sans-Serif" font-size="10.00" fill="grey"> m_os</text>
</g>
</g>
</svg>
