<?xml version="1.0" encoding="UTF-8" standalone="no"?>
<!DOCTYPE svg PUBLIC "-//W3C//DTD SVG 1.1//EN"
 "http://www.w3.org/Graphics/SVG/1.1/DTD/svg11.dtd">
<!-- Generated by graphviz version 12.1.2 (0)
 -->
<!-- Title: yq::base_output_handler Pages: 1 -->
<svg width="596pt" height="202pt"
 viewBox="0.00 0.00 596.25 202.12" xmlns="http://www.w3.org/2000/svg" xmlns:xlink="http://www.w3.org/1999/xlink">
<g id="graph0" class="graph" transform="scale(1 1) rotate(0) translate(4 198.12)">
<title>yq::base_output_handler</title>
<!-- Node1 -->
<g id="Node000001" class="node">
<title>Node1</title>
<g id="a_Node000001"><a xlink:title=" ">
<polygon fill="#999999" stroke="#666666" points="120.25,-73.88 0,-73.88 0,-54.62 120.25,-54.62 120.25,-73.88"/>
<text text-anchor="middle" x="60.12" y="-60.38" font-family="Helvetica,sans-Serif" font-size="10.00">yq::base_output_handler</text>
</a>
</g>
</g>
<!-- Node2 -->
<g id="Node000002" class="node">
<title>Node2</title>
<g id="a_Node000002"><a xlink:href="classyq_1_1stream__output__handler.html" target="_top" xlink:title=" ">
<polygon fill="white" stroke="#bfbfbf" points="285.5,-128.5 156.25,-128.5 156.25,-98 285.5,-98 285.5,-128.5"/>
<text text-anchor="start" x="164.25" y="-115" font-family="Helvetica,sans-Serif" font-size="10.00">yq::stream_output_handler</text>
<text text-anchor="middle" x="220.88" y="-103.75" font-family="Helvetica,sans-Serif" font-size="10.00">&lt; Os &gt;</text>
</a>
</g>
</g>
<!-- Node1&#45;&gt;Node2 -->
<g id="edge1_Node000001_Node000002" class="edge">
<title>Node1&#45;&gt;Node2</title>
<g id="a_edge1_Node000001_Node000002"><a xlink:title=" ">
<path fill="none" stroke="#63b8ff" d="M104.56,-77.66C124.48,-83.8 148.22,-91.13 168.97,-97.54"/>
<polygon fill="#63b8ff" stroke="#63b8ff" points="105.67,-74.34 95.08,-74.73 103.6,-81.02 105.67,-74.34"/>
</a>
</g>
</g>
<!-- Node8 -->
<g id="Node000008" class="node">
<title>Node8</title>
<g id="a_Node000008"><a xlink:href="classyq_1_1stream__output__handler.html" target="_top" xlink:title=" ">
<polygon fill="white" stroke="#bfbfbf" points="285.5,-79.5 156.25,-79.5 156.25,-49 285.5,-49 285.5,-79.5"/>
<text text-anchor="start" x="164.25" y="-66" font-family="Helvetica,sans-Serif" font-size="10.00">yq::stream_output_handler</text>
<text text-anchor="middle" x="220.88" y="-54.75" font-family="Helvetica,sans-Serif" font-size="10.00">&lt; Ostream &gt;</text>
</a>
</g>
</g>
<!-- Node1&#45;&gt;Node8 -->
<g id="edge7_Node000001_Node000008" class="edge">
<title>Node1&#45;&gt;Node8</title>
<g id="a_edge7_Node000001_Node000008"><a xlink:title=" ">
<path fill="none" stroke="#63b8ff" d="M132.19,-64.25C140.12,-64.25 148.16,-64.25 155.99,-64.25"/>
<polygon fill="#63b8ff" stroke="#63b8ff" points="132.2,-60.75 122.2,-64.25 132.2,-67.75 132.2,-60.75"/>
</a>
</g>
</g>
<!-- Node9 -->
<g id="Node000009" class="node">
<title>Node9</title>
<g id="a_Node000009"><a xlink:href="classyq_1_1stream__output__handler_3_01std_1_1ostream_01_4.html" target="_top" xlink:title=" ">
<polygon fill="white" stroke="#bfbfbf" points="285.5,-30.5 156.25,-30.5 156.25,0 285.5,0 285.5,-30.5"/>
<text text-anchor="start" x="164.25" y="-17" font-family="Helvetica,sans-Serif" font-size="10.00">yq::stream_output_handler</text>
<text text-anchor="middle" x="220.88" y="-5.75" font-family="Helvetica,sans-Serif" font-size="10.00">&lt; std::ostream &gt;</text>
</a>
</g>
</g>
<!-- Node1&#45;&gt;Node9 -->
<g id="edge8_Node000001_Node000009" class="edge">
<title>Node1&#45;&gt;Node9</title>
<g id="a_edge8_Node000001_Node000009"><a xlink:title=" ">
<path fill="none" stroke="#63b8ff" d="M104.56,-50.84C124.48,-44.7 148.22,-37.37 168.97,-30.96"/>
<polygon fill="#63b8ff" stroke="#63b8ff" points="103.6,-47.48 95.08,-53.77 105.67,-54.16 103.6,-47.48"/>
</a>
</g>
</g>
<!-- Node3 -->
<g id="Node000003" class="node">
<title>Node3</title>
<g id="a_Node000003"><a xlink:href="classyq_1_1contains__stream__output__handler.html" target="_top" xlink:title=" ">
<polygon fill="white" stroke="#bfbfbf" points="432,-194.12 325.25,-194.12 325.25,-152.38 432,-152.38 432,-194.12"/>
<text text-anchor="start" x="333.25" y="-180.62" font-family="Helvetica,sans-Serif" font-size="10.00">yq::contains_stream</text>
<text text-anchor="start" x="333.25" y="-169.38" font-family="Helvetica,sans-Serif" font-size="10.00">_output_handler&lt; std</text>
<text text-anchor="middle" x="378.62" y="-158.12" font-family="Helvetica,sans-Serif" font-size="10.00">::ofstream &gt;</text>
</a>
</g>
</g>
<!-- Node2&#45;&gt;Node3 -->
<g id="edge2_Node000002_Node000003" class="edge">
<title>Node2&#45;&gt;Node3</title>
<g id="a_edge2_Node000002_Node000003"><a xlink:title=" ">
<path fill="none" stroke="#63b8ff" d="M273.03,-132.96C289.69,-139.38 308.21,-146.51 324.98,-152.97"/>
<polygon fill="#63b8ff" stroke="#63b8ff" points="274.39,-129.73 263.8,-129.4 271.88,-136.26 274.39,-129.73"/>
</a>
</g>
</g>
<!-- Node5 -->
<g id="Node000005" class="node">
<title>Node5</title>
<g id="a_Node000005"><a xlink:href="classyq_1_1contains__stream__output__handler.html" target="_top" xlink:title=" ">
<polygon fill="white" stroke="#bfbfbf" points="432,-134.12 325.25,-134.12 325.25,-92.38 432,-92.38 432,-134.12"/>
<text text-anchor="start" x="333.25" y="-120.62" font-family="Helvetica,sans-Serif" font-size="10.00">yq::contains_stream</text>
<text text-anchor="start" x="333.25" y="-109.38" font-family="Helvetica,sans-Serif" font-size="10.00">_output_handler&lt; std</text>
<text text-anchor="middle" x="378.62" y="-98.12" font-family="Helvetica,sans-Serif" font-size="10.00">::ostringstream &gt;</text>
</a>
</g>
</g>
<!-- Node2&#45;&gt;Node5 -->
<g id="edge4_Node000002_Node000005" class="edge">
<title>Node2&#45;&gt;Node5</title>
<g id="a_edge4_Node000002_Node000005"><a xlink:title=" ">
<path fill="none" stroke="#63b8ff" d="M297.14,-113.25C306.59,-113.25 316.09,-113.25 325.09,-113.25"/>
<polygon fill="#63b8ff" stroke="#63b8ff" points="297.19,-109.75 287.19,-113.25 297.19,-116.75 297.19,-109.75"/>
</a>
</g>
</g>
<!-- Node7 -->
<g id="Node000007" class="node">
<title>Node7</title>
<g id="a_Node000007"><a xlink:href="classyq_1_1contains__stream__output__handler.html" target="_top" xlink:title=" ">
<polygon fill="white" stroke="#bfbfbf" points="435.75,-74.5 321.5,-74.5 321.5,-44 435.75,-44 435.75,-74.5"/>
<text text-anchor="start" x="329.5" y="-61" font-family="Helvetica,sans-Serif" font-size="10.00">yq::contains_stream</text>
<text text-anchor="middle" x="378.62" y="-49.75" font-family="Helvetica,sans-Serif" font-size="10.00">_output_handler&lt; Os &gt;</text>
</a>
</g>
</g>
<!-- Node2&#45;&gt;Node7 -->
<g id="edge6_Node000002_Node000007" class="edge">
<title>Node2&#45;&gt;Node7</title>
<g id="a_edge6_Node000002_Node000007"><a xlink:title=" ">
<path fill="none" stroke="#63b8ff" d="M277.57,-93.94C295.56,-87.7 315.27,-80.87 332.41,-74.93"/>
<polygon fill="#63b8ff" stroke="#63b8ff" points="276.66,-90.55 268.35,-97.14 278.95,-97.17 276.66,-90.55"/>
</a>
</g>
</g>
<!-- Node4 -->
<g id="Node000004" class="node">
<title>Node4</title>
<g id="a_Node000004"><a xlink:href="classyq_1_1fstream__output__handler.html" target="_top" xlink:title=" ">
<polygon fill="white" stroke="#bfbfbf" points="577.75,-188.5 482.25,-188.5 482.25,-158 577.75,-158 577.75,-188.5"/>
<text text-anchor="start" x="490.25" y="-175" font-family="Helvetica,sans-Serif" font-size="10.00">yq::fstream_output</text>
<text text-anchor="middle" x="530" y="-163.75" font-family="Helvetica,sans-Serif" font-size="10.00">_handler</text>
</a>
</g>
</g>
<!-- Node3&#45;&gt;Node4 -->
<g id="edge3_Node000003_Node000004" class="edge">
<title>Node3&#45;&gt;Node4</title>
<g id="a_edge3_Node000003_Node000004"><a xlink:title=" ">
<path fill="none" stroke="#63b8ff" d="M443.44,-173.25C456.31,-173.25 469.61,-173.25 481.79,-173.25"/>
<polygon fill="#63b8ff" stroke="#63b8ff" points="443.8,-169.75 433.8,-173.25 443.8,-176.75 443.8,-169.75"/>
</a>
</g>
</g>
<!-- Node6 -->
<g id="Node000006" class="node">
<title>Node6</title>
<g id="a_Node000006"><a xlink:href="classyq_1_1stringstream__output__handler.html" target="_top" xlink:title=" ">
<polygon fill="white" stroke="#bfbfbf" points="588.25,-128.5 471.75,-128.5 471.75,-98 588.25,-98 588.25,-128.5"/>
<text text-anchor="start" x="479.75" y="-115" font-family="Helvetica,sans-Serif" font-size="10.00">yq::stringstream_output</text>
<text text-anchor="middle" x="530" y="-103.75" font-family="Helvetica,sans-Serif" font-size="10.00">_handler</text>
</a>
</g>
</g>
<!-- Node5&#45;&gt;Node6 -->
<g id="edge5_Node000005_Node000006" class="edge">
<title>Node5&#45;&gt;Node6</title>
<g id="a_edge5_Node000005_Node000006"><a xlink:title=" ">
<path fill="none" stroke="#63b8ff" d="M443.79,-113.25C452.99,-113.25 462.41,-113.25 471.48,-113.25"/>
<polygon fill="#63b8ff" stroke="#63b8ff" points="443.8,-109.75 433.8,-113.25 443.8,-116.75 443.8,-109.75"/>
</a>
</g>
</g>
</g>
</svg>
