<?xml version="1.0" encoding="UTF-8" standalone="no"?>
<!DOCTYPE svg PUBLIC "-//W3C//DTD SVG 1.1//EN"
 "http://www.w3.org/Graphics/SVG/1.1/DTD/svg11.dtd">
<!-- Generated by graphviz version 12.1.2 (0)
 -->
<!-- Title: easylog/easylog/log_base.hpp Pages: 1 -->
<svg width="262pt" height="349pt"
 viewBox="0.00 0.00 261.75 348.50" xmlns="http://www.w3.org/2000/svg" xmlns:xlink="http://www.w3.org/1999/xlink">
<g id="graph0" class="graph" transform="scale(1 1) rotate(0) translate(4 344.5)">
<title>easylog/easylog/log_base.hpp</title>
<!-- Node1 -->
<g id="Node000001" class="node">
<title>Node1</title>
<g id="a_Node000001"><a xlink:title="Contains base components: enum, exception.">
<polygon fill="#999999" stroke="#666666" points="100.75,-340.5 0,-340.5 0,-310 100.75,-310 100.75,-340.5"/>
<text text-anchor="start" x="8" y="-327" font-family="Helvetica,sans-Serif" font-size="10.00">easylog/easylog/log</text>
<text text-anchor="middle" x="50.38" y="-315.75" font-family="Helvetica,sans-Serif" font-size="10.00">_base.hpp</text>
</a>
</g>
</g>
<!-- Node2 -->
<g id="Node000002" class="node">
<title>Node2</title>
<g id="a_Node000002"><a xlink:href="easylog_8hpp.html" target="_top" xlink:title="Contains all header files for easy import by users.">
<polygon fill="white" stroke="#666666" points="138.88,-19.25 35.88,-19.25 35.88,0 138.88,0 138.88,-19.25"/>
<text text-anchor="middle" x="87.38" y="-5.75" font-family="Helvetica,sans-Serif" font-size="10.00">easylog/easylog.hpp</text>
</a>
</g>
</g>
<!-- Node1&#45;&gt;Node2 -->
<g id="edge1_Node000001_Node000002" class="edge">
<title>Node1&#45;&gt;Node2</title>
<g id="a_edge1_Node000001_Node000002"><a xlink:title=" ">
<path fill="none" stroke="#63b8ff" d="M38.28,-299.38C26.83,-273.5 11.38,-231.49 11.38,-193.25 11.38,-193.25 11.38,-193.25 11.38,-130.38 11.38,-82.36 55.47,-38.01 76.49,-19.6"/>
<polygon fill="#63b8ff" stroke="#63b8ff" points="35.05,-300.74 42.41,-308.36 41.42,-297.82 35.05,-300.74"/>
</a>
</g>
</g>
<!-- Node3 -->
<g id="Node000003" class="node">
<title>Node3</title>
<g id="a_Node000003"><a xlink:href="log__msg_8hpp_source.html" target="_top" xlink:title=" ">
<polygon fill="white" stroke="#666666" points="139.75,-274 39,-274 39,-243.5 139.75,-243.5 139.75,-274"/>
<text text-anchor="start" x="47" y="-260.5" font-family="Helvetica,sans-Serif" font-size="10.00">easylog/easylog/log</text>
<text text-anchor="middle" x="89.38" y="-249.25" font-family="Helvetica,sans-Serif" font-size="10.00">_msg.hpp</text>
</a>
</g>
</g>
<!-- Node1&#45;&gt;Node3 -->
<g id="edge2_Node000001_Node000003" class="edge">
<title>Node1&#45;&gt;Node3</title>
<g id="a_edge2_Node000001_Node000003"><a xlink:title=" ">
<path fill="none" stroke="#63b8ff" d="M65.03,-300.01C70.26,-291.37 75.98,-281.91 80.56,-274.33"/>
<polygon fill="#63b8ff" stroke="#63b8ff" points="62.19,-297.95 60.01,-308.32 68.18,-301.57 62.19,-297.95"/>
</a>
</g>
</g>
<!-- Node3&#45;&gt;Node2 -->
<g id="edge3_Node000003_Node000002" class="edge">
<title>Node3&#45;&gt;Node2</title>
<g id="a_edge3_Node000003_Node000002"><a xlink:title=" ">
<path fill="none" stroke="#63b8ff" d="M76.72,-232.92C73.31,-225 70.09,-216.07 68.38,-207.5 54.06,-136.12 76.48,-47.95 84.62,-19.75"/>
<polygon fill="#63b8ff" stroke="#63b8ff" points="73.51,-234.32 80.89,-241.92 79.86,-231.37 73.51,-234.32"/>
</a>
</g>
</g>
<!-- Node4 -->
<g id="Node000004" class="node">
<title>Node4</title>
<g id="a_Node000004"><a xlink:href="logger__core_8hpp_source.html" target="_top" xlink:title=" ">
<polygon fill="white" stroke="#666666" points="191.5,-207.5 77.25,-207.5 77.25,-177 191.5,-177 191.5,-207.5"/>
<text text-anchor="start" x="85.25" y="-194" font-family="Helvetica,sans-Serif" font-size="10.00">easylog/easylog/logger</text>
<text text-anchor="middle" x="134.38" y="-182.75" font-family="Helvetica,sans-Serif" font-size="10.00">_core.hpp</text>
</a>
</g>
</g>
<!-- Node3&#45;&gt;Node4 -->
<g id="edge4_Node000003_Node000004" class="edge">
<title>Node3&#45;&gt;Node4</title>
<g id="a_edge4_Node000003_Node000004"><a xlink:title=" ">
<path fill="none" stroke="#63b8ff" d="M106.09,-233.79C112.17,-225.07 118.86,-215.49 124.2,-207.83"/>
<polygon fill="#63b8ff" stroke="#63b8ff" points="103.3,-231.67 100.45,-241.87 109.04,-235.67 103.3,-231.67"/>
</a>
</g>
</g>
<!-- Node4&#45;&gt;Node2 -->
<g id="edge5_Node000004_Node000002" class="edge">
<title>Node4&#45;&gt;Node2</title>
<g id="a_edge5_Node000004_Node000002"><a xlink:title=" ">
<path fill="none" stroke="#63b8ff" d="M118.42,-166.82C113.88,-158.87 109.36,-149.81 106.38,-141 91.55,-97.24 88.29,-41.36 87.58,-19.74"/>
<polygon fill="#63b8ff" stroke="#63b8ff" points="115.34,-168.48 123.5,-175.23 121.33,-164.86 115.34,-168.48"/>
</a>
</g>
</g>
<!-- Node5 -->
<g id="Node000005" class="node">
<title>Node5</title>
<g id="a_Node000005"><a xlink:href="logger_8hpp_source.html" target="_top" xlink:title=" ">
<polygon fill="white" stroke="#666666" points="247.5,-141 115.25,-141 115.25,-121.75 247.5,-121.75 247.5,-141"/>
<text text-anchor="middle" x="181.38" y="-127.5" font-family="Helvetica,sans-Serif" font-size="10.00">easylog/easylog/logger.hpp</text>
</a>
</g>
</g>
<!-- Node4&#45;&gt;Node5 -->
<g id="edge6_Node000004_Node000005" class="edge">
<title>Node4&#45;&gt;Node5</title>
<g id="a_edge6_Node000004_Node000005"><a xlink:title=" ">
<path fill="none" stroke="#63b8ff" d="M153.05,-167.86C160.44,-158.59 168.5,-148.5 174.13,-141.45"/>
<polygon fill="#63b8ff" stroke="#63b8ff" points="150.44,-165.51 146.94,-175.51 155.91,-169.88 150.44,-165.51"/>
</a>
</g>
</g>
<!-- Node5&#45;&gt;Node2 -->
<g id="edge7_Node000005_Node000002" class="edge">
<title>Node5&#45;&gt;Node2</title>
<g id="a_edge7_Node000005_Node000002"><a xlink:title=" ">
<path fill="none" stroke="#63b8ff" d="M166.61,-112.93C159.77,-104.74 151.57,-94.82 144.38,-85.75 125.65,-62.15 104.4,-33.67 93.92,-19.51"/>
<polygon fill="#63b8ff" stroke="#63b8ff" points="163.8,-115.02 172.92,-120.42 169.16,-110.51 163.8,-115.02"/>
</a>
</g>
</g>
<!-- Node6 -->
<g id="Node000006" class="node">
<title>Node6</title>
<g id="a_Node000006"><a xlink:href="log__wrapper_8hpp_source.html" target="_top" xlink:title=" ">
<polygon fill="white" stroke="#666666" points="253.75,-85.75 153,-85.75 153,-55.25 253.75,-55.25 253.75,-85.75"/>
<text text-anchor="start" x="161" y="-72.25" font-family="Helvetica,sans-Serif" font-size="10.00">easylog/easylog/log</text>
<text text-anchor="middle" x="203.38" y="-61" font-family="Helvetica,sans-Serif" font-size="10.00">_wrapper.hpp</text>
</a>
</g>
</g>
<!-- Node5&#45;&gt;Node6 -->
<g id="edge8_Node000005_Node000006" class="edge">
<title>Node5&#45;&gt;Node6</title>
<g id="a_edge8_Node000005_Node000006"><a xlink:title=" ">
<path fill="none" stroke="#63b8ff" d="M188.71,-110.73C191.73,-102.66 195.16,-93.48 197.94,-86.03"/>
<polygon fill="#63b8ff" stroke="#63b8ff" points="185.47,-109.42 185.25,-120.02 192.03,-111.87 185.47,-109.42"/>
</a>
</g>
</g>
<!-- Node6&#45;&gt;Node2 -->
<g id="edge9_Node000006_Node000002" class="edge">
<title>Node6&#45;&gt;Node2</title>
<g id="a_edge9_Node000006_Node000002"><a xlink:title=" ">
<path fill="none" stroke="#63b8ff" d="M164.29,-49.66C144.26,-39.5 120.85,-27.62 105.16,-19.65"/>
<polygon fill="#63b8ff" stroke="#63b8ff" points="162.55,-52.71 173.05,-54.11 165.72,-46.46 162.55,-52.71"/>
</a>
</g>
</g>
</g>
</svg>
