<?xml version="1.0" encoding="UTF-8" standalone="no"?>
<!DOCTYPE svg PUBLIC "-//W3C//DTD SVG 1.1//EN"
 "http://www.w3.org/Graphics/SVG/1.1/DTD/svg11.dtd">
<!-- Generated by graphviz version 12.1.2 (0)
 -->
<!-- Title: easylog/easylog/output_handler.hpp Pages: 1 -->
<svg width="554pt" height="94pt"
 viewBox="0.00 0.00 554.00 93.75" xmlns="http://www.w3.org/2000/svg" xmlns:xlink="http://www.w3.org/1999/xlink">
<g id="graph0" class="graph" transform="scale(1 1) rotate(0) translate(4 89.75)">
<title>easylog/easylog/output_handler.hpp</title>
<!-- Node1 -->
<g id="Node000001" class="node">
<title>Node1</title>
<g id="a_Node000001"><a xlink:title="Contains output handler components for managing various output streams.">
<polygon fill="#999999" stroke="#666666" points="345.25,-85.75 230.25,-85.75 230.25,-55.25 345.25,-55.25 345.25,-85.75"/>
<text text-anchor="start" x="238.25" y="-72.25" font-family="Helvetica,sans-Serif" font-size="10.00">easylog/easylog/output</text>
<text text-anchor="middle" x="287.75" y="-61" font-family="Helvetica,sans-Serif" font-size="10.00">_handler.hpp</text>
</a>
</g>
</g>
<!-- Node2 -->
<g id="Node000002" class="node">
<title>Node2</title>
<g id="a_Node000002"><a xlink:title=" ">
<polygon fill="#e0e0e0" stroke="#999999" points="65.5,-19.25 0,-19.25 0,0 65.5,0 65.5,-19.25"/>
<text text-anchor="middle" x="32.75" y="-5.75" font-family="Helvetica,sans-Serif" font-size="10.00">string_view</text>
</a>
</g>
</g>
<!-- Node1&#45;&gt;Node2 -->
<g id="edge1_Node000001_Node000002" class="edge">
<title>Node1&#45;&gt;Node2</title>
<g id="a_edge1_Node000001_Node000002"><a xlink:title=" ">
<path fill="none" stroke="#63b8ff" d="M229.89,-56.14C183.45,-45.42 119.23,-30.59 76.88,-20.81"/>
<polygon fill="#63b8ff" stroke="#63b8ff" points="77.81,-17.44 67.28,-18.6 76.24,-24.26 77.81,-17.44"/>
</a>
</g>
</g>
<!-- Node3 -->
<g id="Node000003" class="node">
<title>Node3</title>
<g id="a_Node000003"><a xlink:title=" ">
<polygon fill="#e0e0e0" stroke="#999999" points="134.38,-19.25 83.12,-19.25 83.12,0 134.38,0 134.38,-19.25"/>
<text text-anchor="middle" x="108.75" y="-5.75" font-family="Helvetica,sans-Serif" font-size="10.00">ostream</text>
</a>
</g>
</g>
<!-- Node1&#45;&gt;Node3 -->
<g id="edge2_Node000001_Node000003" class="edge">
<title>Node1&#45;&gt;Node3</title>
<g id="a_edge2_Node000001_Node000003"><a xlink:title=" ">
<path fill="none" stroke="#63b8ff" d="M243.04,-54.8C212.87,-44.87 173.56,-31.94 145.27,-22.64"/>
<polygon fill="#63b8ff" stroke="#63b8ff" points="146.67,-19.41 136.08,-19.61 144.48,-26.06 146.67,-19.41"/>
</a>
</g>
</g>
<!-- Node4 -->
<g id="Node000004" class="node">
<title>Node4</title>
<g id="a_Node000004"><a xlink:title=" ">
<polygon fill="#e0e0e0" stroke="#999999" points="208.62,-19.25 152.88,-19.25 152.88,0 208.62,0 208.62,-19.25"/>
<text text-anchor="middle" x="180.75" y="-5.75" font-family="Helvetica,sans-Serif" font-size="10.00">concepts</text>
</a>
</g>
</g>
<!-- Node1&#45;&gt;Node4 -->
<g id="edge3_Node000001_Node000004" class="edge">
<title>Node1&#45;&gt;Node4</title>
<g id="a_edge3_Node000001_Node000004"><a xlink:title=" ">
<path fill="none" stroke="#63b8ff" d="M261.03,-54.8C244.57,-45.74 223.57,-34.19 207.17,-25.16"/>
<polygon fill="#63b8ff" stroke="#63b8ff" points="208.93,-22.14 198.49,-20.38 205.56,-28.27 208.93,-22.14"/>
</a>
</g>
</g>
<!-- Node5 -->
<g id="Node000005" class="node">
<title>Node5</title>
<g id="a_Node000005"><a xlink:title=" ">
<polygon fill="#e0e0e0" stroke="#999999" points="278.38,-19.25 227.12,-19.25 227.12,0 278.38,0 278.38,-19.25"/>
<text text-anchor="middle" x="252.75" y="-5.75" font-family="Helvetica,sans-Serif" font-size="10.00">sstream</text>
</a>
</g>
</g>
<!-- Node1&#45;&gt;Node5 -->
<g id="edge4_Node000001_Node000005" class="edge">
<title>Node1&#45;&gt;Node5</title>
<g id="a_edge4_Node000001_Node000005"><a xlink:title=" ">
<path fill="none" stroke="#63b8ff" d="M279.1,-54.95C274.54,-47.28 268.89,-37.77 263.99,-29.54"/>
<polygon fill="#63b8ff" stroke="#63b8ff" points="267.04,-27.81 258.92,-21 261.02,-31.39 267.04,-27.81"/>
</a>
</g>
</g>
<!-- Node6 -->
<g id="Node000006" class="node">
<title>Node6</title>
<g id="a_Node000006"><a xlink:title=" ">
<polygon fill="#e0e0e0" stroke="#999999" points="349.5,-19.25 296,-19.25 296,0 349.5,0 349.5,-19.25"/>
<text text-anchor="middle" x="322.75" y="-5.75" font-family="Helvetica,sans-Serif" font-size="10.00">iostream</text>
</a>
</g>
</g>
<!-- Node1&#45;&gt;Node6 -->
<g id="edge5_Node000001_Node000006" class="edge">
<title>Node1&#45;&gt;Node6</title>
<g id="a_edge5_Node000001_Node000006"><a xlink:title=" ">
<path fill="none" stroke="#63b8ff" d="M296.4,-54.95C300.96,-47.28 306.61,-37.77 311.51,-29.54"/>
<polygon fill="#63b8ff" stroke="#63b8ff" points="314.48,-31.39 316.58,-21 308.46,-27.81 314.48,-31.39"/>
</a>
</g>
</g>
<!-- Node7 -->
<g id="Node000007" class="node">
<title>Node7</title>
<g id="a_Node000007"><a xlink:title=" ">
<polygon fill="#e0e0e0" stroke="#999999" points="416.25,-19.25 367.25,-19.25 367.25,0 416.25,0 416.25,-19.25"/>
<text text-anchor="middle" x="391.75" y="-5.75" font-family="Helvetica,sans-Serif" font-size="10.00">fstream</text>
</a>
</g>
</g>
<!-- Node1&#45;&gt;Node7 -->
<g id="edge6_Node000001_Node000007" class="edge">
<title>Node1&#45;&gt;Node7</title>
<g id="a_edge6_Node000001_Node000007"><a xlink:title=" ">
<path fill="none" stroke="#63b8ff" d="M313.73,-54.8C329.72,-45.74 350.13,-34.19 366.07,-25.16"/>
<polygon fill="#63b8ff" stroke="#63b8ff" points="367.51,-28.37 374.48,-20.4 364.06,-22.28 367.51,-28.37"/>
</a>
</g>
</g>
<!-- Node8 -->
<g id="Node000008" class="node">
<title>Node8</title>
<g id="a_Node000008"><a xlink:title=" ">
<polygon fill="#e0e0e0" stroke="#999999" points="477.62,-19.25 433.88,-19.25 433.88,0 477.62,0 477.62,-19.25"/>
<text text-anchor="middle" x="455.75" y="-5.75" font-family="Helvetica,sans-Serif" font-size="10.00">format</text>
</a>
</g>
</g>
<!-- Node1&#45;&gt;Node8 -->
<g id="edge7_Node000001_Node000008" class="edge">
<title>Node1&#45;&gt;Node8</title>
<g id="a_edge7_Node000001_Node000008"><a xlink:title=" ">
<path fill="none" stroke="#63b8ff" d="M329.71,-54.8C358.62,-44.66 396.49,-31.39 423.14,-22.05"/>
<polygon fill="#63b8ff" stroke="#63b8ff" points="424.11,-25.42 432.39,-18.81 421.8,-18.81 424.11,-25.42"/>
</a>
</g>
</g>
<!-- Node9 -->
<g id="Node000009" class="node">
<title>Node9</title>
<g id="a_Node000009"><a xlink:title=" ">
<polygon fill="#e0e0e0" stroke="#999999" points="546,-19.25 495.5,-19.25 495.5,0 546,0 546,-19.25"/>
<text text-anchor="middle" x="520.75" y="-5.75" font-family="Helvetica,sans-Serif" font-size="10.00">memory</text>
</a>
</g>
</g>
<!-- Node1&#45;&gt;Node9 -->
<g id="edge8_Node000001_Node000009" class="edge">
<title>Node1&#45;&gt;Node9</title>
<g id="a_edge8_Node000001_Node000009"><a xlink:title=" ">
<path fill="none" stroke="#63b8ff" d="M345.66,-54.89C382.73,-45.54 432.16,-33.06 484.03,-19.94"/>
<polygon fill="#63b8ff" stroke="#63b8ff" points="484.83,-23.35 493.66,-17.5 483.11,-16.56 484.83,-23.35"/>
</a>
</g>
</g>
</g>
</svg>
