<?xml version="1.0" encoding="UTF-8" standalone="no"?>
<!DOCTYPE svg PUBLIC "-//W3C//DTD SVG 1.1//EN"
 "http://www.w3.org/Graphics/SVG/1.1/DTD/svg11.dtd">
<!-- Generated by graphviz version 12.1.2 (0)
 -->
<!-- Title: easylog/easylog/output_handler.hpp Pages: 1 -->
<svg width="188pt" height="282pt"
 viewBox="0.00 0.00 187.88 282.00" xmlns="http://www.w3.org/2000/svg" xmlns:xlink="http://www.w3.org/1999/xlink">
<g id="graph0" class="graph" transform="scale(1 1) rotate(0) translate(4 278)">
<title>easylog/easylog/output_handler.hpp</title>
<!-- Node1 -->
<g id="Node000001" class="node">
<title>Node1</title>
<g id="a_Node000001"><a xlink:title="Contains output handler components for managing various output streams.">
<polygon fill="#999999" stroke="#666666" points="118,-274 3,-274 3,-243.5 118,-243.5 118,-274"/>
<text text-anchor="start" x="11" y="-260.5" font-family="Helvetica,sans-Serif" font-size="10.00">easylog/easylog/output</text>
<text text-anchor="middle" x="60.5" y="-249.25" font-family="Helvetica,sans-Serif" font-size="10.00">_handler.hpp</text>
</a>
</g>
</g>
<!-- Node2 -->
<g id="Node000002" class="node">
<title>Node2</title>
<g id="a_Node000002"><a xlink:href="logger__core_8hpp_source.html" target="_top" xlink:title=" ">
<polygon fill="white" stroke="#666666" points="117.62,-207.5 3.38,-207.5 3.38,-177 117.62,-177 117.62,-207.5"/>
<text text-anchor="start" x="11.38" y="-194" font-family="Helvetica,sans-Serif" font-size="10.00">easylog/easylog/logger</text>
<text text-anchor="middle" x="60.5" y="-182.75" font-family="Helvetica,sans-Serif" font-size="10.00">_core.hpp</text>
</a>
</g>
</g>
<!-- Node1&#45;&gt;Node2 -->
<g id="edge1_Node000001_Node000002" class="edge">
<title>Node1&#45;&gt;Node2</title>
<g id="a_edge1_Node000001_Node000002"><a xlink:title=" ">
<path fill="none" stroke="#63b8ff" d="M60.5,-231.81C60.5,-223.64 60.5,-214.91 60.5,-207.83"/>
<polygon fill="#63b8ff" stroke="#63b8ff" points="57,-231.6 60.5,-241.6 64,-231.6 57,-231.6"/>
</a>
</g>
</g>
<!-- Node3 -->
<g id="Node000003" class="node">
<title>Node3</title>
<g id="a_Node000003"><a xlink:href="easylog_8hpp.html" target="_top" xlink:title="Contains all header files for easy import by users.">
<polygon fill="white" stroke="#666666" points="103,-19.25 0,-19.25 0,0 103,0 103,-19.25"/>
<text text-anchor="middle" x="51.5" y="-5.75" font-family="Helvetica,sans-Serif" font-size="10.00">easylog/easylog.hpp</text>
</a>
</g>
</g>
<!-- Node2&#45;&gt;Node3 -->
<g id="edge2_Node000002_Node000003" class="edge">
<title>Node2&#45;&gt;Node3</title>
<g id="a_edge2_Node000002_Node000003"><a xlink:title=" ">
<path fill="none" stroke="#63b8ff" d="M43.77,-167.05C39.19,-159.11 34.84,-150.01 32.5,-141 20.88,-96.28 39.43,-40.96 47.77,-19.61"/>
<polygon fill="#63b8ff" stroke="#63b8ff" points="40.72,-168.79 48.98,-175.43 46.67,-165.09 40.72,-168.79"/>
</a>
</g>
</g>
<!-- Node4 -->
<g id="Node000004" class="node">
<title>Node4</title>
<g id="a_Node000004"><a xlink:href="logger_8hpp_source.html" target="_top" xlink:title=" ">
<polygon fill="white" stroke="#666666" points="173.62,-141 41.38,-141 41.38,-121.75 173.62,-121.75 173.62,-141"/>
<text text-anchor="middle" x="107.5" y="-127.5" font-family="Helvetica,sans-Serif" font-size="10.00">easylog/easylog/logger.hpp</text>
</a>
</g>
</g>
<!-- Node2&#45;&gt;Node4 -->
<g id="edge3_Node000002_Node000004" class="edge">
<title>Node2&#45;&gt;Node4</title>
<g id="a_edge3_Node000002_Node000004"><a xlink:title=" ">
<path fill="none" stroke="#63b8ff" d="M79.18,-167.86C86.57,-158.59 94.63,-148.5 100.25,-141.45"/>
<polygon fill="#63b8ff" stroke="#63b8ff" points="76.57,-165.51 73.06,-175.51 82.04,-169.88 76.57,-165.51"/>
</a>
</g>
</g>
<!-- Node4&#45;&gt;Node3 -->
<g id="edge4_Node000004_Node000003" class="edge">
<title>Node4&#45;&gt;Node3</title>
<g id="a_edge4_Node000004_Node000003"><a xlink:title=" ">
<path fill="none" stroke="#63b8ff" d="M90.15,-113.16C83.14,-105.37 75.54,-95.68 70.5,-85.75 59.17,-63.44 54.27,-33.89 52.44,-19.4"/>
<polygon fill="#63b8ff" stroke="#63b8ff" points="87.44,-115.4 96.86,-120.25 92.52,-110.58 87.44,-115.4"/>
</a>
</g>
</g>
<!-- Node5 -->
<g id="Node000005" class="node">
<title>Node5</title>
<g id="a_Node000005"><a xlink:href="log__wrapper_8hpp_source.html" target="_top" xlink:title=" ">
<polygon fill="white" stroke="#666666" points="179.88,-85.75 79.12,-85.75 79.12,-55.25 179.88,-55.25 179.88,-85.75"/>
<text text-anchor="start" x="87.12" y="-72.25" font-family="Helvetica,sans-Serif" font-size="10.00">easylog/easylog/log</text>
<text text-anchor="middle" x="129.5" y="-61" font-family="Helvetica,sans-Serif" font-size="10.00">_wrapper.hpp</text>
</a>
</g>
</g>
<!-- Node4&#45;&gt;Node5 -->
<g id="edge5_Node000004_Node000005" class="edge">
<title>Node4&#45;&gt;Node5</title>
<g id="a_edge5_Node000004_Node000005"><a xlink:title=" ">
<path fill="none" stroke="#63b8ff" d="M114.84,-110.73C117.86,-102.66 121.29,-93.48 124.07,-86.03"/>
<polygon fill="#63b8ff" stroke="#63b8ff" points="111.59,-109.42 111.37,-120.02 118.15,-111.87 111.59,-109.42"/>
</a>
</g>
</g>
<!-- Node5&#45;&gt;Node3 -->
<g id="edge6_Node000005_Node000003" class="edge">
<title>Node5&#45;&gt;Node3</title>
<g id="a_edge6_Node000005_Node000003"><a xlink:title=" ">
<path fill="none" stroke="#63b8ff" d="M101.17,-48.12C88.21,-38.33 73.54,-27.26 63.52,-19.7"/>
<polygon fill="#63b8ff" stroke="#63b8ff" points="98.92,-50.8 109.01,-54.03 103.14,-45.22 98.92,-50.8"/>
</a>
</g>
</g>
</g>
</svg>
